<?xml version="1.0" encoding="utf-8"?>
<svg id="master-artboard" viewBox="0 0 109.37427520751953 106.02962493896484" version="1.1" xmlns="http://www.w3.org/2000/svg" x="0px" y="0px" style="enable-background:new 0 0 1400 980;" width="109.37427520751953px" height="106.02962493896484px"><rect id="ee-background" x="0" y="0" width="109.37427520751953" height="106.02962493896484" style="fill: white; fill-opacity: 0; pointer-events: none;"/><path d="M 704.9432983398438 346.1955871582031 C 704.9432983398438 346.1955871582031 703.2765502929688 330.8622741699219 716.6099243164062 330.6955871582031 C 729.9432983398438 330.5289001464844 759.9432983398438 330.5289001464844 759.9432983398438 330.5289001464844 C 759.9432983398438 330.5289001464844 775.6099243164062 328.195556640625 775.276611328125 344.5289001464844 C 774.9432983398438 360.86224365234375 775.276611328125 379.5289001464844 775.276611328125 379.5289001464844 C 775.276611328125 379.5289001464844 775.4432983398438 391.695556640625 761.9432983398438 392.0289001464844 C 748.4432983398438 392.36224365234375 717.4432983398438 392.36224365234375 717.4432983398438 392.36224365234375 C 717.4432983398438 392.36224365234375 704.6099243164062 393.5289001464844 704.776611328125 379.86224365234375 C 704.9432983398438 366.1955871582031 705.1099243164062 346.6955871582031 704.9432983398438 346.1955871582031 Z" style="fill: rgb(178, 177, 194); fill-opacity: 1; stroke: rgb(6, 7, 3); stroke-opacity: 1; stroke-width: 2; paint-order: fill;" transform="matrix(1, 0, 0, 1, -683.9672703742981, -308.51108169555664)"/><path d="M 704.9432983398438 346.1955871582031 C 704.9432983398438 346.1955871582031 703.2765502929688 330.8622741699219 716.6099243164062 330.6955871582031 C 729.9432983398438 330.5289001464844 759.9432983398438 330.5289001464844 759.9432983398438 330.5289001464844 C 759.9432983398438 330.5289001464844 775.6099243164062 328.195556640625 775.276611328125 344.5289001464844 C 774.9432983398438 360.86224365234375 775.276611328125 379.5289001464844 775.276611328125 379.5289001464844 C 775.276611328125 379.5289001464844 775.4432983398438 391.695556640625 761.9432983398438 392.0289001464844 C 748.4432983398438 392.36224365234375 717.4432983398438 392.36224365234375 717.4432983398438 392.36224365234375 C 717.4432983398438 392.36224365234375 704.6099243164062 393.5289001464844 704.776611328125 379.86224365234375 C 704.9432983398438 366.1955871582031 705.1099243164062 346.6955871582031 704.9432983398438 346.1955871582031 Z" style="fill: rgb(196, 231, 237); fill-opacity: 1; stroke: rgb(6, 7, 3); stroke-opacity: 1; stroke-width: 1; paint-order: fill;" transform="matrix(0.9098802208900452, 0, 0, 0.9057185053825378, -617.3713231086731, -274.0020332336426)"/><g transform="matrix(0.5437318682670593, 0, 0, 0.3119756877422333, -200.7502293586731, -51.557682037353516)"><g id="g-1" transform="matrix(1, 0, 0, 1, 0, 0)">
	<path class="st0" d="M 507.20014038085935 343.1098937988281 C 503.10014038085933 335.90989379882814 501.5331665039062 335.27088623046876 497.43316650390625 342.47088623046875 L 459.4 411 C 455.29999999999995 418.2 458.7 424 467 424 L 511.86505126953125 422.9315185546875 C 519.655381937302 426.1197136554489 533.8856713932234 400.21372030203804 530.1933837890625 390.6993103027344 L 507.20014038085935 343.1098937988281 Z" style="fill: rgb(82, 190, 159); stroke: rgb(0, 0, 0); stroke-width: 2;"/>
</g></g><g transform="matrix(0.6881343126296997, 0, 0, 0.3948293626308441, -303.55476427078247, -85.29469680786133)"><g id="g-2" transform="matrix(1, 0, 0, 1, 0, 0)">
	<path class="st0" d="M 506.2313293457031 341.42138671875 C 501.8891296386719 333.37713623046875 503.7129760742187 335.27088623046876 499.61297607421875 342.47088623046875 L 477.5650390625 394.9593200683594 C 473.3633279414495 402.6911631116713 482.4300652929505 423.1853488116657 491.2200927734375 420.6230163574219 L 537.2421875 420.6230163574219 C 545.4421875 420.6230163574219 551.1220581054688 422.7433715820313 547.0220581054688 415.64337158203125 L 506.2313293457031 341.42138671875 Z" style="fill: rgb(0, 166, 166); stroke: rgb(0, 0, 0);"/>
</g></g><g transform="matrix(0.10770111531019211, 0, 0, 0.10770111531019211, 3.9354395866394043, 30.641918182373047)"><g id="g-3" transform="matrix(1, 0, 0, 1, 0, 0)">
	<g id="g-4">
		<path class="st0" d="M652,46c27.6,0,50,22.4,50,50s-22.4,50-50,50s-50-22.4-50-50S624.4,46,652,46z" style="fill: rgb(249, 231, 92); stroke: rgb(6, 7, 3); stroke-width: 6;"/>
	</g>
</g></g><path d="M 736.62109375 319.504638671875 L 824.7849731445312 408.459228515625 L 736.62109375 319.504638671875 Z" style="fill: rgb(196, 231, 237); fill-opacity: 1; stroke: rgb(6, 7, 3); stroke-opacity: 1; stroke-width: 2; paint-order: stroke;" transform="matrix(1, 0, 0, 1, -726.8348851203918, -311.4914894104004)"/><path d="M 612.7396850585938 328.36517333984375" style="fill: rgb(0, 166, 166); fill-opacity: 1; stroke: rgb(0, 0, 0); stroke-opacity: 1; stroke-width: 1; paint-order: stroke;" transform="matrix(1, 0, 0, 1, -592.0192723274231, -233.81612014770508)"/></svg>