<?xml version="1.0" encoding="utf-8"?>
<svg id="master-artboard" viewBox="0 0 88.61993408203125 89.48499298095703" version="1.1" xmlns="http://www.w3.org/2000/svg" x="0px" y="0px" style="enable-background:new 0 0 1400 980;" width="88.61993408203125px" height="89.48499298095703px"><rect id="ee-background" x="0" y="0" width="88.61993408203125" height="89.48499298095703" style="fill: white; fill-opacity: 0; pointer-events: none;"/><g transform="matrix(0.8914205431938171, 0, 0, 0.8914205431938171, -52.091485381126404, -43.30484962463379)"><g id="g-11" transform="matrix(1, 0, 0, 1, 0, 0)">
	<g id="g-12">
		<path class="st0" d="M58,49h100v100H58V49z" style="fill: rgb(65, 119, 190);"/>
	</g>
</g></g><path d="M 158.6830596923828 89.1966552734375" style="fill: rgb(255, 255, 255); fill-opacity: 1; stroke: rgb(65, 119, 190); stroke-opacity: 0; stroke-width: 0; paint-order: stroke;" transform="matrix(1, 0, 0, 1, -95.3526281118393, -63.240745544433594)"/><g transform="matrix(0.43475431203842163, 0, 0, 0.29975441098213196, -2.471486449241638, 17.059005737304688)"><g id="g-13" transform="matrix(1, 0, 0, 1, 0, 0)">
	<g id="g-14">
		<path class="st0" d="M58,49h100v100H58V49z" style="fill: rgb(255, 255, 255);"/>
	</g>
</g></g><g transform="matrix(-0.001179136335849762, 0.299837589263916, -0.19280099868774414, -0.0007582062971778214, 245.5221506357193, 16.073699951171875)"><g id="g-15" transform="matrix(1, 0, 0, 1, 0, 0)">
	<g id="g-16">
		<g>
			<path class="st0" d="M160.2,1162H49.8l55.2-96.6L160.2,1162z M60.2,1156h89.7l-44.8-78.5L60.2,1156z" style="fill: rgb(65, 119, 190);"/>
		</g>
	</g>
</g></g><g transform="matrix(0.001179136335849762, 0.29983848333358765, 0.19280099868774414, -0.0007582062971778214, -156.6043142080307, 16.156478881835938)"><g id="g-17" transform="matrix(1, 0, 0, 1, 0, 0)">
	<g id="g-18">
		<g>
			<path class="st0" d="M160.2,1162H49.8l55.2-96.6L160.2,1162z M60.2,1156h89.7l-44.8-78.5L60.2,1156z" style="fill: rgb(65, 119, 190);"/>
		</g>
	</g>
</g></g><g transform="matrix(0.4812396466732025, 0.0008679452002979815, 0.00043427300988696516, -0.24065323173999786, -6.602132201194763, 308.7083206176758)"><g id="g-19" transform="matrix(1, 0, 0, 1, 0, 0)">
	<g id="g-20">
		<g>
			<path class="st0" d="M160.2,1162H49.8l55.2-96.6L160.2,1162z M60.2,1156h89.7l-44.8-78.5L60.2,1156z" style="fill: rgb(65, 119, 190);"/>
		</g>
	</g>
</g></g></svg>