<?xml version="1.0" encoding="utf-8"?>
<svg id="master-artboard" viewBox="0 0 303.77301025390625 302.0702209472656" version="1.1" xmlns="http://www.w3.org/2000/svg" x="0px" y="0px" style="enable-background:new 0 0 1400 980;" width="303.77301025390625px" height="302.0702209472656px"><rect id="ee-background" x="0" y="0" width="303.77301025390625" height="302.0702209472656" style="fill: white; fill-opacity: 0; pointer-events: none;"/><g transform="matrix(2.760433197021484, 0, 0, 2.760433197021484, -1649.1178818923836, -111.55262040400737)"><g id="g-9" transform="matrix(1, 0, 0, 1, 0, 0)">
	<g id="g-10">
		<path class="st0" d="M652,46c27.6,0,50,22.4,50,50s-22.4,50-50,50s-50-22.4-50-50S624.4,46,652,46z" style="fill: rgb(214, 214, 214); stroke: rgb(0, 0, 0); stroke-opacity: 0.27;"/>
	</g>
</g></g><g transform="matrix(0.3373267650604248, 0, 0, 1.125709056854248, 116.65721881562399, 69.6398921081996)"><g id="g-3" transform="matrix(1, 0, 0, 1, 0, 0)">
	<g id="g-4">
		<path class="st0" d="M58,49h100v100H58V49z" style="fill: rgb(65, 119, 190); fill-opacity: 0.8;"/>
	</g>
</g></g><g transform="matrix(0.500668168067932, 0, 0, 0.500668168067932, -173.94311535185648, 36.88069105839497)"><g id="g-5" transform="matrix(1, 0, 0, 1, 0, 0)">
	<g id="g-6">
		<path class="st0" d="M652,46c27.6,0,50,22.4,50,50s-22.4,50-50,50s-50-22.4-50-50S624.4,46,652,46z" style="fill: rgb(65, 119, 190); fill-opacity: 0.8;"/>
	</g>
</g></g></svg>