<?xml version="1.0" encoding="utf-8"?>
<svg id="master-artboard" viewBox="0 0 88.78925323486328 88.82682800292969" version="1.1" xmlns="http://www.w3.org/2000/svg" x="0px" y="0px" style="enable-background:new 0 0 336 235.2;" width="88.78925323486328px" height="88.82682800292969px"><rect id="ee-background" x="0" y="0" width="88.78925323486328" height="88.82682800292969" style="fill: white; fill-opacity: 0; pointer-events: none;"/><g transform="matrix(0.8837685585021973, 0, 0, 0.8837685585021973, -51.12986373901367, -43.10108208656311)"><g id="Layer_2_4_" transform="matrix(1, 0, 0, 1, 0, 0)">
	<g id="Layer_1-2_4_">
		<path class="st0" d="M58,49h100v100H58V49z" style="fill: rgb(65, 119, 190);"/>
	</g>
</g></g><g transform="matrix(0.3100031316280365, 0, 0, 0.3100031316280365, -157.82555614156632, -222.24913024902344)"><g id="Layer_2_43_" transform="matrix(1, 0, 0, 1, 0, 0)">
	<g id="Layer_1-2_41_">
		<g>
			<path class="st0" d="M654,884c-29.2,0-53-23.8-53-53s23.8-53,53-53s53,23.8,53,53S683.2,884,654,884z M654,784&#10;&#9;&#9;&#9;&#9;c-25.9,0-47,21.1-47,47s21.1,47,47,47s47-21.1,47-47S679.9,784,654,784z" style="fill: rgb(255, 255, 255); stroke: rgb(255, 255, 255); stroke-width: 0;"/>
		</g>
	</g>
</g></g><g transform="matrix(0.5156743463938142, 0, 0, 0.19140093032761227, -11.03550438115876, 44.14288625983072)"><g id="g-3" transform="matrix(1, 0, 0, 1, 0, 0)">
	<g id="g-4">
		<path class="st0" d="M 58 49 L 73.10416412353516 49 L 158 49 L 158 149 L 58 149 L 58 89.17855834960938 L 58 49 Z" style="fill: rgb(255, 255, 255);"/>
	</g>
</g></g><path d="M 17.301355361938477 65.36631774902344 C 17.301355361938477 65.36631774902344 14.986358642578125 51.265872955322266 26.77180290222168 51.89723587036133 C 38.557247161865234 52.52859878540039 14.986357688903809 49.16132736206055 14.986357688903809 49.16132736206055 L 12.460905075073242 63.89313507080078 L 17.301355361938477 65.36631774902344 Z" style="fill: rgb(65, 119, 190); fill-opacity: 1; stroke: rgb(0, 0, 0); stroke-opacity: 1; stroke-width: 0; paint-order: fill;" transform="matrix(1, 0, 0, 1, 1.473180685830343, 1.2627257617468999)"/><path d="M 17.301355361938477 65.36631774902344 C 17.301355361938477 65.36631774902344 14.986358642578125 51.265872955322266 26.77180290222168 51.89723587036133 C 38.557247161865234 52.52859878540039 14.986357688903809 49.16132736206055 14.986357688903809 49.16132736206055 L 12.460905075073242 63.89313507080078 L 17.301355361938477 65.36631774902344 Z" style="fill: rgb(65, 119, 190); fill-opacity: 1; stroke: rgb(0, 0, 0); stroke-opacity: 1; stroke-width: 0; paint-order: fill;" transform="matrix(-1, 0, 0, 1, 88.23491513506883, 1.5784073741227544)"/></svg>