<?xml version="1.0" encoding="utf-8"?>
<svg id="master-artboard" viewBox="0 0 88.78925323486328 88.82682800292969" version="1.1" xmlns="http://www.w3.org/2000/svg" x="0px" y="0px" style="enable-background:new 0 0 336 235.2;" width="88.78925323486328px" height="88.82682800292969px"><rect id="ee-background" x="0" y="0" width="88.78925323486328" height="88.82682800292969" style="fill: white; fill-opacity: 0; pointer-events: none;"/><g transform="matrix(0.8837685585021973, 0, 0, 0.8837685585021973, -51.12986373901367, -43.10108208656311)"><g id="Layer_2_4_" transform="matrix(1, 0, 0, 1, 0, 0)">
	<g id="Layer_1-2_4_">
		<path class="st0" d="M58,49h100v100H58V49z" style="fill: rgb(65, 119, 190);"/>
	</g>
</g></g><g transform="matrix(0.07451657205820084, 0, 0, 0.07451657205820084, -14.421518325805664, 47.21465277671814)"><g id="Layer_2" transform="matrix(1, 0, 0, 1, 0, 0)">
	<g id="Layer_1-2">
		<path class="st0" d="M652,46c27.6,0,50,22.4,50,50s-22.4,50-50,50s-50-22.4-50-50S624.4,46,652,46z" style="fill: rgb(255, 255, 255);"/>
	</g>
</g></g><g transform="matrix(0.26036766171455383, 0, 0, 0.26036766171455383, -136.2023162841797, -161.95587182044983)"><g id="Layer_2_43_" transform="matrix(1, 0, 0, 1, 0, 0)">
	<g id="Layer_1-2_41_">
		<g>
			<path class="st0" d="M654,884c-29.2,0-53-23.8-53-53s23.8-53,53-53s53,23.8,53,53S683.2,884,654,884z M654,784&#10;&#9;&#9;&#9;&#9;c-25.9,0-47,21.1-47,47s21.1,47,47,47s47-21.1,47-47S679.9,784,654,784z" style="fill: rgb(255, 255, 255); stroke: rgb(255, 255, 255); stroke-width: 8;"/>
		</g>
	</g>
</g></g><path d="M 374.3218078613281 377.20587158203125 L 394.4884948730469 356.5392150878906 L 399.8218078613281 356.20587158203125 L 400.3218078613281 361.20587158203125 L 389.1551513671875 372.70587158203125 L 383.6551513671875 372.5392150878906 L 383.8218078613281 377.5392150878906 L 378.8218078613281 382.3725280761719 L 382.9884948730469 383.0392150878906 L 387.3218078613281 379.20587158203125 L 387.1551513671875 376.20587158203125 L 390.3218078613281 376.20587158203125 L 403.4884948730469 363.20587158203125 L 403.3218078613281 353.0392150878906 L 393.1551513671875 353.0392150878906 L 373.6551513671875 373.0392150878906 L 374.3218078613281 377.20587158203125 Z" style="fill: rgb(255, 255, 255); fill-opacity: 1; stroke: rgb(0, 0, 0); stroke-opacity: 1; stroke-width: 0; paint-order: fill;" transform="matrix(1, 0, 0, 1, -334.7937927246094, -332.87489342689514)"/><path d="M 545.4419555664062 360.4393310546875 L 555.829833984375 350.0514831542969 L 557.005859375 351.61944580078125 L 547.2059326171875 361.4193115234375 L 545.4419555664062 360.4393310546875 Z" style="fill: rgb(255, 255, 255); fill-opacity: 1; stroke: rgb(0, 0, 0); stroke-opacity: 1; stroke-width: 0; paint-order: stroke;" transform="matrix(1, 0, 0, 1, -494.5259704589844, -324.2328646183014)"/><path style="fill: rgb(65, 119, 190); fill-opacity: 1; stroke: rgb(0, 0, 0); stroke-opacity: 1; stroke-width: 0; paint-order: fill;" d="M 416.1304626464844 351.4599914550781 L 419.797119140625 347.7933044433594 L 424.1304626464844 347.12664794921875 L 424.6304626464844 352.62664794921875 L 420.797119140625 356.7933044433594 L 416.1304626464844 351.62664794921875 L 416.1304626464844 351.4599914550781 Z" transform="matrix(1, 0, 0, 1, -377.71148681640625, -306.0051119327545)"/></svg>