<?xml version="1.0" encoding="utf-8"?>
<svg id="master-artboard" viewBox="0 0 1400 980" version="1.1" xmlns="http://www.w3.org/2000/svg" x="0px" y="0px" style="enable-background:new 0 0 336 235.2;" width="1400px" height="980px"><rect id="ee-background" x="0" y="0" width="1400" height="980" style="fill: white; fill-opacity: 0; pointer-events: none;"/><defs><style id="ee-google-fonts">@import url(https://fonts.googleapis.com/css?family=Audiowide:400);</style></defs>





















































































































































<g transform="matrix(5.368720196302227, -4.544554543019194, 0.7430747473758174, 0.8778332107453451, -574.5120975526548, 1280.5857950604782)"><g id="g-1" transform="matrix(1, 0, 0, 1, 0, 0)">
	<g id="g-2">
		<path class="st0" d="M58,49h100v100H58V49z" style="fill: rgb(51, 51, 51);"/>
	</g>
</g></g><g transform="matrix(5.321072578430175, -4.600250720977784, 0.7521811723709105, 0.8700417280197144, 699.178689655311, 500.74855339812643)"><g id="g-3" transform="matrix(1, 0, 0, 1, 0, 0)">
	<g id="g-4">
		<path class="st0" d="M58,49h100v100H58V49z" style="fill: rgb(51, 51, 51);"/>
	</g>
</g></g><g transform="matrix(1.7173445282243402, 2.0019032905858887, -2.326651090612997, 1.995931632046816, 1153.9135714474796, -405.56445515739875)"><g id="g-5" transform="matrix(1, 0, 0, 1, 0, 0)">
	<g id="g-6">
		<path class="st0" d="M103,336.5L53,424h100L103,336.5" style="fill: rgb(51, 51, 51);"/>
	</g>
</g></g><g transform="matrix(-1.7230907678604124, -1.9969627857208254, 2.320898532867431, -2.002619981765747, 276.80190741730337, 1373.789644697564)"><g id="g-7" transform="matrix(1, 0, 0, 1, 0, 0)">
	<g id="g-8">
		<path class="st0" d="M103,336.5L53,424h100L103,336.5" style="fill: rgb(51, 51, 51);"/>
	</g>
</g></g></svg>