<?xml version="1.0" encoding="utf-8"?>
<svg id="master-artboard" viewBox="0 0 80 80" xmlns="http://www.w3.org/2000/svg" width="80px" height="80px" version="1.1" style="shape-rendering:geometricPrecision; text-rendering:geometricPrecision; image-rendering:optimizeQuality; fill-rule:evenodd; clip-rule:evenodd"><rect id="ee-background" x="0" y="0" width="80" height="80" style="fill: white; fill-opacity: 0; pointer-events: none;"/><g transform="matrix(0.48832237720489496, 0, 0, 0.48832237720489496, -12.533817888260785, -1.9773471657757113)"><g id="g-1" transform="matrix(1, 0, 0, 1, 0, 0)">
	<g id="g-2">
		<path class="st0" d="M 58 49 L 158 49 L 143.9652862548828 149.91128540039062 L 73.94756698608398 149.91128540039062 L 58 49 Z" style="fill: rgb(51, 51, 51);"/>
	</g>
</g></g><path d="M 209.1534881591797 121.81587219238281 L 214.1534881591797 151.4825439453125 L 209.1534881591797 121.81587219238281 Z" style="fill: rgb(51, 51, 51); fill-opacity: 1; stroke: rgb(252, 252, 252); stroke-opacity: 1; stroke-width: 3; paint-order: fill;" transform="matrix(0.9982734918594357, 0.05872204154729842, -0.05872204154729842, 0.9982734918594357, -174.26382696724028, -103.11379507226985)"/><path d="M 209.1534881591797 121.81587219238281 L 214.1534881591797 151.4825439453125 L 209.1534881591797 121.81587219238281 Z" style="fill: rgb(51, 51, 51); fill-opacity: 1; stroke: rgb(252, 252, 252); stroke-opacity: 1; stroke-width: 3; paint-order: fill;" transform="matrix(0.9569237828254699, 0.29034408926963806, -0.29034408926963806, 0.9569237828254699, -111.19375860786525, -146.32010915918391)"/><path d="M 209.1534881591797 121.81587219238281 L 214.1534881591797 151.4825439453125 L 209.1534881591797 121.81587219238281 Z" style="fill: rgb(51, 51, 51); fill-opacity: 1; stroke: rgb(252, 252, 252); stroke-opacity: 1; stroke-width: 3; paint-order: fill;" transform="matrix(0.9863940477371215, 0.16439901292324066, -0.16439901292324066, 0.9863940477371215, -146.47535956001371, -124.52384451074641)"/><path d="M 210.32015991210938 92.98253631591797 C 210.32015991210938 92.98253631591797 207.65347290039062 94.9825439453125 210.3201446533203 96.31587219238281 C 212.98681640625 97.64920043945312 261.32012939453125 96.64920043945312 261.32012939453125 96.64920043945312 C 261.32012939453125 96.64920043945312 263.48681640625 94.31586456298828 260.98681640625 93.48253631591797 C 258.48681640625 92.64920806884766 210.48681640625 92.48253631591797 210.32015991210938 92.98253631591797 Z" style="fill: rgb(51, 51, 51); fill-opacity: 1; stroke: rgb(252, 252, 252); stroke-opacity: 1; stroke-width: 0; paint-order: stroke;" transform="matrix(1.0502612590789797, 0, 0, 1.0502612590789797, -207.66476690864653, -81.18844869775812)"/><path d="M 214.00161743164062 108.51048278808594 L 209.1682891845703 108.51048278808594 L 212.1682891845703 99.51048278808594 L 235.6682891845703 99.51048278808594 L 239.33494567871094 108.51048278808594 L 234.00161743164062 108.51048278808594 L 233.16827392578125 103.34381103515625 L 215.16830444335938 103.34381866455078 L 214.00161743164062 108.51048278808594 Z" style="fill: rgb(51, 51, 51); fill-opacity: 1; stroke: rgb(252, 252, 252); stroke-opacity: 1; stroke-width: 0; paint-order: fill;" transform="matrix(0.9999999999999999, 0, 0, 0.9999999999999999, -184.15336859321684, -91.08757284326596)"/></svg>